<svg xmlns="http://www.w3.org/2000/svg" width="360" height="520" viewBox="0 0 360 520"><defs><linearGradient id="g" x1="0" y1="0" x2="1" y2="1"><stop stop-color="#242d25"/><stop offset="1" stop-color="#100e0c"/></linearGradient></defs><rect width="360" height="520" fill="url(#g)"/><rect x="15" y="15" width="330" height="490" fill="none" stroke="#d4b46d" stroke-width="1" opacity=".75"/><path d="M30 30H65M30 30V65M330 30H295M330 30V65M30 490H65M30 490V455M330 490H295M330 490V455" stroke="#d4b46d" fill="none" stroke-width="2"/><circle cx="180" cy="300" r="46" fill="none" stroke="#d4b46d" stroke-width="3"/><path d="M180 230V210" stroke="#d4b46d" stroke-width="3" transform="rotate(0 180 300)"/><path d="M180 230V210" stroke="#d4b46d" stroke-width="3" transform="rotate(30 180 300)"/><path d="M180 230V210" stroke="#d4b46d" stroke-width="3" transform="rotate(60 180 300)"/><path d="M180 230V210" stroke="#d4b46d" stroke-width="3" transform="rotate(90 180 300)"/><path d="M180 230V210" stroke="#d4b46d" stroke-width="3" transform="rotate(120 180 300)"/><path d="M180 230V210" stroke="#d4b46d" stroke-width="3" transform="rotate(150 180 300)"/><path d="M180 230V210" stroke="#d4b46d" stroke-width="3" transform="rotate(180 180 300)"/><path d="M180 230V210" stroke="#d4b46d" stroke-width="3" transform="rotate(210 180 300)"/><path d="M180 230V210" stroke="#d4b46d" stroke-width="3" transform="rotate(240 180 300)"/><path d="M180 230V210" stroke="#d4b46d" stroke-width="3" transform="rotate(270 180 300)"/><path d="M180 230V210" stroke="#d4b46d" stroke-width="3" transform="rotate(300 180 300)"/><path d="M180 230V210" stroke="#d4b46d" stroke-width="3" transform="rotate(330 180 300)"/><path d="M100 360L145 320L180 340L220 285L260 315" fill="none" stroke="#d4b46d" stroke-width="2"/><circle cx="180" cy="300" r="16" fill="#d4b46d" opacity=".55"/><text x="180" y="76" fill="#d4b46d" font-family="Georgia,serif" font-size="11" letter-spacing="4" text-anchor="middle">VERITAS • ACERVO</text><text x="180" y="130" fill="#f3e8d5" font-family="Georgia,serif" font-size="24" text-anchor="middle" font-weight="bold">A ARTE DA GUERRA</text><text x="180" y="160" fill="#d4b46d" font-family="Georgia,serif" font-size="12" letter-spacing="1.5" text-anchor="middle">SUN TZU</text><path d="M100 435H260" stroke="#d4b46d" opacity=".7"/><text x="180" y="460" fill="#e9dfd0" font-family="Georgia,serif" font-size="10" letter-spacing="1.5" text-anchor="middle">ESTRATÉGIA • SABEDORIA</text><text x="180" y="480" fill="#d4b46d" font-family="Georgia,serif" font-size="9" letter-spacing="4" text-anchor="middle">V E R I T A S</text></svg>