<svg xmlns="http://www.w3.org/2000/svg" width="360" height="520" viewBox="0 0 360 520"><defs><linearGradient id="g" x1="0" y1="0" x2="1" y2="1"><stop stop-color="#781f24"/><stop offset="1" stop-color="#100e0c"/></linearGradient></defs><rect width="360" height="520" fill="url(#g)"/><rect x="15" y="15" width="330" height="490" fill="none" stroke="#eee0c9" stroke-width="1" opacity=".75"/><path d="M30 30H65M30 30V65M330 30H295M330 30V65M30 490H65M30 490V455M330 490H295M330 490V455" stroke="#eee0c9" fill="none" stroke-width="2"/><path d="M80 310Q180 215 280 310Q180 405 80 310Z" fill="none" stroke="#eee0c9" stroke-width="3"/><circle cx="180" cy="310" r="28" fill="none" stroke="#eee0c9" stroke-width="3"/><circle cx="180" cy="310" r="8" fill="#eee0c9"/><text x="180" y="76" fill="#eee0c9" font-family="Georgia,serif" font-size="11" letter-spacing="4" text-anchor="middle">VERITAS • ACERVO</text><text x="180" y="130" fill="#f3e8d5" font-family="Georgia,serif" font-size="31" text-anchor="middle" font-weight="bold">1984</text><text x="180" y="160" fill="#eee0c9" font-family="Georgia,serif" font-size="12" letter-spacing="1.5" text-anchor="middle">GEORGE ORWELL</text><path d="M100 435H260" stroke="#eee0c9" opacity=".7"/><text x="180" y="460" fill="#e9dfd0" font-family="Georgia,serif" font-size="10" letter-spacing="1.5" text-anchor="middle">UM ROMANCE</text><text x="180" y="480" fill="#eee0c9" font-family="Georgia,serif" font-size="9" letter-spacing="4" text-anchor="middle">V E R I T A S</text></svg>